<mxfile host="app.diagrams.net" modified="2021-11-05T07:27:35.647Z" agent="5.0 (X11; Linux x86_64) AppleWebKit/537.36 (KHTML, like Gecko) Chrome/93.0.4577.63 Safari/537.36" etag="2Plm6W87NqwAycHYGYC0" version="15.6.8" type="github">
  <diagram name="Page-1" id="74e2e168-ea6b-b213-b513-2b3c1d86103e">
    <mxGraphModel dx="1350" dy="745" grid="1" gridSize="10" guides="1" tooltips="1" connect="1" arrows="1" fold="1" page="1" pageScale="1" pageWidth="1100" pageHeight="850" background="none" math="0" shadow="0">
      <root>
        <mxCell id="0" />
        <mxCell id="1" parent="0" />
        <mxCell id="77e6c97f196da883-1" value="FileWatch" style="swimlane;html=1;childLayout=stackLayout;startSize=20;rounded=0;shadow=0;labelBackgroundColor=none;strokeWidth=1;fontFamily=Verdana;fontSize=8;align=center;" parent="1" vertex="1">
          <mxGeometry x="170" y="50" width="810" height="750" as="geometry" />
        </mxCell>
        <mxCell id="77e6c97f196da883-2" value="ui" style="swimlane;html=1;startSize=20;" parent="77e6c97f196da883-1" vertex="1">
          <mxGeometry y="20" width="160" height="730" as="geometry" />
        </mxCell>
        <mxCell id="77e6c97f196da883-8" value="文件列表" style="rounded=1;whiteSpace=wrap;html=1;shadow=0;labelBackgroundColor=none;strokeWidth=1;fontFamily=Verdana;fontSize=8;align=center;" parent="77e6c97f196da883-2" vertex="1">
          <mxGeometry x="20" y="65" width="100" height="60" as="geometry" />
        </mxCell>
        <mxCell id="77e6c97f196da883-26" style="edgeStyle=orthogonalEdgeStyle;rounded=1;html=1;labelBackgroundColor=none;startArrow=none;startFill=0;startSize=5;endArrow=classicThin;endFill=1;endSize=5;jettySize=auto;orthogonalLoop=1;strokeWidth=1;fontFamily=Verdana;fontSize=8" parent="77e6c97f196da883-1" source="77e6c97f196da883-8" target="77e6c97f196da883-11" edge="1">
          <mxGeometry relative="1" as="geometry" />
        </mxCell>
        <mxCell id="77e6c97f196da883-3" value="FileModel" style="swimlane;html=1;startSize=20;" parent="77e6c97f196da883-1" vertex="1">
          <mxGeometry x="160" y="20" width="160" height="730" as="geometry" />
        </mxCell>
        <mxCell id="77e6c97f196da883-11" value="请求数据" style="rounded=1;whiteSpace=wrap;html=1;shadow=0;labelBackgroundColor=none;strokeWidth=1;fontFamily=Verdana;fontSize=8;align=center;" parent="77e6c97f196da883-3" vertex="1">
          <mxGeometry x="30" y="65" width="100" height="60" as="geometry" />
        </mxCell>
        <mxCell id="o19a3lgHuZZTyxUuwOnY-3" value="组成模型" style="whiteSpace=wrap;html=1;rounded=1;shadow=0;fontFamily=Verdana;fontSize=8;strokeWidth=1;" vertex="1" parent="77e6c97f196da883-3">
          <mxGeometry x="30" y="180" width="110" height="60" as="geometry" />
        </mxCell>
        <mxCell id="o19a3lgHuZZTyxUuwOnY-16" value="通过index更新变化item" style="whiteSpace=wrap;html=1;rounded=1;" vertex="1" parent="77e6c97f196da883-3">
          <mxGeometry x="20" y="540" width="120" height="60" as="geometry" />
        </mxCell>
        <mxCell id="77e6c97f196da883-4" value="FileWatch" style="swimlane;html=1;startSize=20;" parent="77e6c97f196da883-1" vertex="1">
          <mxGeometry x="320" y="20" width="160" height="730" as="geometry" />
        </mxCell>
        <mxCell id="o19a3lgHuZZTyxUuwOnY-6" value="监听当前model文件夹变化" style="whiteSpace=wrap;html=1;rounded=1;shadow=0;fontFamily=Verdana;fontSize=8;strokeWidth=1;" vertex="1" parent="77e6c97f196da883-4">
          <mxGeometry x="25" y="280" width="110" height="60" as="geometry" />
        </mxCell>
        <mxCell id="o19a3lgHuZZTyxUuwOnY-13" value="文件夹数量变化" style="whiteSpace=wrap;html=1;rounded=1;" vertex="1" parent="77e6c97f196da883-4">
          <mxGeometry x="15" y="630" width="120" height="60" as="geometry" />
        </mxCell>
        <mxCell id="o19a3lgHuZZTyxUuwOnY-22" style="edgeStyle=orthogonalEdgeStyle;rounded=0;orthogonalLoop=1;jettySize=auto;html=1;exitX=0.5;exitY=1;exitDx=0;exitDy=0;entryX=0.5;entryY=0;entryDx=0;entryDy=0;" edge="1" parent="77e6c97f196da883-4" source="o19a3lgHuZZTyxUuwOnY-11" target="o19a3lgHuZZTyxUuwOnY-13">
          <mxGeometry relative="1" as="geometry" />
        </mxCell>
        <mxCell id="o19a3lgHuZZTyxUuwOnY-11" value="&amp;nbsp;isModel &amp;amp; isDir" style="rhombus;whiteSpace=wrap;html=1;rounded=1;" vertex="1" parent="77e6c97f196da883-4">
          <mxGeometry x="17.5" y="520" width="115" height="80" as="geometry" />
        </mxCell>
        <mxCell id="77e6c97f196da883-5" value="KDirWatch" style="swimlane;html=1;startSize=20;" parent="77e6c97f196da883-1" vertex="1">
          <mxGeometry x="480" y="20" width="165" height="730" as="geometry" />
        </mxCell>
        <mxCell id="o19a3lgHuZZTyxUuwOnY-15" style="edgeStyle=orthogonalEdgeStyle;rounded=0;orthogonalLoop=1;jettySize=auto;html=1;exitX=0.5;exitY=1;exitDx=0;exitDy=0;" edge="1" parent="77e6c97f196da883-5" source="o19a3lgHuZZTyxUuwOnY-8" target="o19a3lgHuZZTyxUuwOnY-10">
          <mxGeometry relative="1" as="geometry" />
        </mxCell>
        <mxCell id="o19a3lgHuZZTyxUuwOnY-8" value="创建timer，500ms检查通知" style="whiteSpace=wrap;html=1;rounded=1;shadow=0;fontFamily=Verdana;fontSize=8;strokeWidth=1;" vertex="1" parent="77e6c97f196da883-5">
          <mxGeometry x="27.5" y="280" width="110" height="60" as="geometry" />
        </mxCell>
        <mxCell id="o19a3lgHuZZTyxUuwOnY-20" value="" style="edgeStyle=orthogonalEdgeStyle;rounded=0;orthogonalLoop=1;jettySize=auto;html=1;" edge="1" parent="77e6c97f196da883-5" source="o19a3lgHuZZTyxUuwOnY-10" target="o19a3lgHuZZTyxUuwOnY-19">
          <mxGeometry relative="1" as="geometry" />
        </mxCell>
        <mxCell id="o19a3lgHuZZTyxUuwOnY-10" value="500ms轮询" style="rounded=1;whiteSpace=wrap;html=1;" vertex="1" parent="77e6c97f196da883-5">
          <mxGeometry x="22.5" y="390" width="120" height="60" as="geometry" />
        </mxCell>
        <mxCell id="o19a3lgHuZZTyxUuwOnY-19" value="isChanged" style="rhombus;whiteSpace=wrap;html=1;rounded=1;" vertex="1" parent="77e6c97f196da883-5">
          <mxGeometry x="42.5" y="520" width="80" height="80" as="geometry" />
        </mxCell>
        <mxCell id="77e6c97f196da883-6" value="KioListJob" style="swimlane;html=1;startSize=20;" parent="77e6c97f196da883-1" vertex="1">
          <mxGeometry x="645" y="20" width="160" height="730" as="geometry" />
        </mxCell>
        <mxCell id="o19a3lgHuZZTyxUuwOnY-1" value="组成文件信息" style="whiteSpace=wrap;html=1;rounded=1;shadow=0;fontFamily=Verdana;fontSize=8;strokeWidth=1;" vertex="1" parent="77e6c97f196da883-6">
          <mxGeometry x="30" y="65" width="120" height="60" as="geometry" />
        </mxCell>
        <mxCell id="o19a3lgHuZZTyxUuwOnY-2" value="" style="edgeStyle=orthogonalEdgeStyle;rounded=0;orthogonalLoop=1;jettySize=auto;html=1;" edge="1" parent="77e6c97f196da883-1" source="77e6c97f196da883-11" target="o19a3lgHuZZTyxUuwOnY-1">
          <mxGeometry relative="1" as="geometry" />
        </mxCell>
        <mxCell id="o19a3lgHuZZTyxUuwOnY-4" value="" style="edgeStyle=orthogonalEdgeStyle;rounded=0;orthogonalLoop=1;jettySize=auto;html=1;" edge="1" parent="77e6c97f196da883-1" source="o19a3lgHuZZTyxUuwOnY-1" target="o19a3lgHuZZTyxUuwOnY-3">
          <mxGeometry relative="1" as="geometry">
            <Array as="points">
              <mxPoint x="730" y="240" />
            </Array>
          </mxGeometry>
        </mxCell>
        <mxCell id="o19a3lgHuZZTyxUuwOnY-7" value="" style="edgeStyle=orthogonalEdgeStyle;rounded=0;orthogonalLoop=1;jettySize=auto;html=1;" edge="1" parent="77e6c97f196da883-1" source="o19a3lgHuZZTyxUuwOnY-3" target="o19a3lgHuZZTyxUuwOnY-6">
          <mxGeometry relative="1" as="geometry">
            <Array as="points">
              <mxPoint x="245" y="340" />
            </Array>
          </mxGeometry>
        </mxCell>
        <mxCell id="o19a3lgHuZZTyxUuwOnY-9" value="" style="edgeStyle=orthogonalEdgeStyle;rounded=0;orthogonalLoop=1;jettySize=auto;html=1;" edge="1" parent="77e6c97f196da883-1" source="o19a3lgHuZZTyxUuwOnY-6" target="o19a3lgHuZZTyxUuwOnY-8">
          <mxGeometry relative="1" as="geometry" />
        </mxCell>
        <mxCell id="o19a3lgHuZZTyxUuwOnY-17" value="" style="edgeStyle=orthogonalEdgeStyle;rounded=0;orthogonalLoop=1;jettySize=auto;html=1;" edge="1" parent="77e6c97f196da883-1" source="o19a3lgHuZZTyxUuwOnY-13" target="o19a3lgHuZZTyxUuwOnY-16">
          <mxGeometry relative="1" as="geometry" />
        </mxCell>
        <mxCell id="o19a3lgHuZZTyxUuwOnY-21" style="edgeStyle=orthogonalEdgeStyle;rounded=0;orthogonalLoop=1;jettySize=auto;html=1;exitX=0;exitY=0.5;exitDx=0;exitDy=0;entryX=1;entryY=0.5;entryDx=0;entryDy=0;" edge="1" parent="77e6c97f196da883-1" source="o19a3lgHuZZTyxUuwOnY-19" target="o19a3lgHuZZTyxUuwOnY-11">
          <mxGeometry relative="1" as="geometry" />
        </mxCell>
        <mxCell id="o19a3lgHuZZTyxUuwOnY-5" style="edgeStyle=orthogonalEdgeStyle;rounded=0;orthogonalLoop=1;jettySize=auto;html=1;exitX=0;exitY=0.5;exitDx=0;exitDy=0;" edge="1" parent="1" source="o19a3lgHuZZTyxUuwOnY-3">
          <mxGeometry relative="1" as="geometry">
            <mxPoint x="240" y="200" as="targetPoint" />
          </mxGeometry>
        </mxCell>
        <mxCell id="o19a3lgHuZZTyxUuwOnY-18" style="edgeStyle=orthogonalEdgeStyle;rounded=0;orthogonalLoop=1;jettySize=auto;html=1;exitX=0;exitY=0.5;exitDx=0;exitDy=0;" edge="1" parent="1" source="o19a3lgHuZZTyxUuwOnY-16">
          <mxGeometry relative="1" as="geometry">
            <mxPoint x="210" y="200" as="targetPoint" />
          </mxGeometry>
        </mxCell>
      </root>
    </mxGraphModel>
  </diagram>
</mxfile>
